<?xml version="1.0" encoding="utf-8"?>
<!-- Generator: Adobe Illustrator 27.0.0, SVG Export Plug-In . SVG Version: 6.00 Build 0)  -->
<svg version="1.1" id="Calque_1" xmlns="http://www.w3.org/2000/svg" xmlns:xlink="http://www.w3.org/1999/xlink" x="0px" y="0px"
	 viewBox="0 0 90.6 87.4" style="enable-background:new 0 0 90.6 87.4;" xml:space="preserve">
<style type="text/css">
	.st0{fill:#3E3E3E;}
</style>
<path class="st0" d="M73.2,8.4H17.6c-6.8,0-12.2,5.5-12.2,12.2v34.2c0,6.7,5.5,12.2,12.2,12.2l5.8,0l-1.7,14.2
	c-0.6,3.7,3.5,6.1,6.5,3.9l18.5-18.2h26.5c6.8,0,12.2-5.5,12.2-12.2V20.6C85.4,13.8,79.9,8.4,73.2,8.4L73.2,8.4z M24.1,43.7
	c-3.3,0-6-2.7-6-6s2.7-6,6-6s6.1,2.7,6.1,6S27.4,43.7,24.1,43.7z M45.4,43.7c-3.3,0-6-2.7-6-6s2.7-6,6-6s6.1,2.7,6.1,6
	C51.4,41,48.7,43.7,45.4,43.7z M66.7,43.7c-3.3,0-6-2.7-6-6s2.7-6,6-6c3.3,0,6.1,2.7,6.1,6C72.7,41,70,43.7,66.7,43.7z"/>
</svg>
