<?xml version="1.0" encoding="utf-8"?>
<!-- Generator: Adobe Illustrator 27.0.0, SVG Export Plug-In . SVG Version: 6.00 Build 0)  -->
<svg version="1.1" id="Calque_1" xmlns="http://www.w3.org/2000/svg" xmlns:xlink="http://www.w3.org/1999/xlink" x="0px" y="0px"
	 viewBox="0 0 81.6 70.9" style="enable-background:new 0 0 81.6 70.9;" xml:space="preserve">
<style type="text/css">
	.st0{fill:#3E3E3E;}
</style>
<path class="st0" d="M9.7,11c-0.6,0-1.1,0.2-1.5,0.6c-0.4,0.4-0.6,0.9-0.6,1.5v6.5L41,41.8l33.3-22.2v-6.5c0-1.1-0.9-2.1-2.1-2.1
	L9.7,11z M7.6,24.6v34.3c0,0.6,0.2,1.1,0.6,1.5C8.6,60.8,9.2,61,9.7,61h62.5c1.1,0,2.1-0.9,2.1-2.1V24.6L42.1,46.1v0
	c-0.7,0.5-1.6,0.5-2.3,0L7.6,24.6z"/>
</svg>
