<?xml version="1.0" encoding="utf-8"?>
<!-- Generator: Adobe Illustrator 27.0.0, SVG Export Plug-In . SVG Version: 6.00 Build 0)  -->
<svg version="1.1" id="Calque_1" xmlns="http://www.w3.org/2000/svg" xmlns:xlink="http://www.w3.org/1999/xlink" x="0px" y="0px"
	 viewBox="0 0 110 85.5" style="enable-background:new 0 0 110 85.5;" xml:space="preserve">
<style type="text/css">
	.st0{fill-rule:evenodd;clip-rule:evenodd;fill:#3E3E3E;}
</style>
<path class="st0" d="M11.2,9.3h87.7c1.5,0,2.9,1,3.4,2.4c0.5,1.4,0.1,3.1-1.1,4L57.3,52.3c-1.4,1.1-3.3,1.1-4.7,0L8.8,15.7
	c-1.2-1-1.6-2.6-1.1-4C8.2,10.2,9.6,9.3,11.2,9.3L11.2,9.3z"/>
<path class="st0" d="M102.5,24.1L62,57.9c-4.1,3.4-10,3.4-14,0L7.5,24.1v47.2c0,1,0.4,1.9,1.1,2.6c0.7,0.7,1.6,1.1,2.6,1.1h87.7
	c1,0,1.9-0.4,2.6-1.1c0.7-0.7,1.1-1.6,1.1-2.6L102.5,24.1z"/>
</svg>
