<?xml version="1.0" encoding="UTF-8"?>
<svg id="Layer_1" xmlns="http://www.w3.org/2000/svg" version="1.1" viewBox="0 0 98.7 97.5">
  <!-- Generator: Adobe Illustrator 29.3.1, SVG Export Plug-In . SVG Version: 2.1.0 Build 151)  -->
  <defs>
    <style>
      .st0 {
        fill: #3e3e3e;
        fill-rule: evenodd;
      }

      .st1 {
        font-family: Helvetica-Bold, Helvetica;
        font-size: 5px;
        font-weight: 700;
        isolation: isolate;
      }
    </style>
  </defs>
  <path class="st0" d="M21.8,21.1c9.5-9.5,24.9-9.5,34.4,0,9.5,9.5,9.5,24.9,0,34.4-9.5,9.5-24.9,9.5-34.4,0-9.5-9.5-9.5-24.9,0-34.4ZM16.1,15.4c-6.3,6.3-9.5,14.6-9.5,22.9s3.2,16.6,9.5,22.9c5.2,5.2,11.7,8.2,18.4,9.2,6.8,1,13.9-.3,20.1-3.7.8-.5,1.8-.4,2.5.3l23,23c1.4,1.4,3.4,2.2,5.3,2.2s3.8-.7,5.2-2.1h0c1.5-1.5,2.2-3.5,2.2-5.4s-.7-3.8-2.2-5.3l-23-23c-.6-.6-.8-1.6-.3-2.4,3.5-6.2,4.7-13.4,3.8-20.3-.9-6.7-4-13.2-9.2-18.4-6.3-6.3-14.6-9.5-22.9-9.5s-16.6,3.2-22.9,9.5h0Z"/>
  <text class="st1" transform="translate(-.2 116.6)"><tspan x="0" y="0">Created by Liberus</tspan></text>
  <text class="st1" transform="translate(-.2 121.6)"><tspan x="0" y="0">from Noun Project</tspan></text>
</svg>