<?xml version="1.0" encoding="utf-8"?>
<!-- Generator: Adobe Illustrator 27.0.0, SVG Export Plug-In . SVG Version: 6.00 Build 0)  -->
<svg version="1.1" id="Calque_1" xmlns="http://www.w3.org/2000/svg" xmlns:xlink="http://www.w3.org/1999/xlink" x="0px" y="0px"
	 viewBox="0 0 110 102" style="enable-background:new 0 0 110 102;" xml:space="preserve">
<style type="text/css">
	.st0{fill-rule:evenodd;clip-rule:evenodd;fill:#3E3E3E;}
</style>
<path class="st0" d="M9,34.8c0-2.2,1.8-3.9,3.9-3.9h14.3l11.7-24c0.7-1.5,2.3-2.3,3.9-2.2l18,0c2.2,0,3.9,1.8,3.9,3.9v84.2
	c0,2.2-1.8,3.9-3.9,3.9l-18.3,0c-1.6,0-3-0.9-3.6-2.3L27.2,70.5H12.9c-2.2,0-3.9-1.8-3.9-3.9L9,34.8z M82.5,25.1
	c-1.5-1.5-1.5-4,0-5.6c1.5-1.5,4-1.5,5.6,0c17.2,17.2,17.2,45.1,0,62.3c-1.5,1.5-4,1.5-5.6,0s-1.5-4,0-5.6
	C96.7,62.2,96.7,39.3,82.5,25.1L82.5,25.1z M71.7,36c8.1,8.1,8.1,21.3,0,29.4c-1.5,1.5-1.5,4,0,5.6c1.5,1.5,4,1.5,5.6,0
	c2.6-2.6,4.8-5.8,6.2-9.3c4.4-10.7,1.9-23.1-6.2-31.2c-1.5-1.5-4-1.5-5.6,0C70.1,32,70.1,34.5,71.7,36z"/>
<text transform="matrix(1 0 0 1 5 118.2255)" style="font-family:'Helvetica-Bold'; font-size:5px;">Created by Rusma Ratri Handini</text>
<text transform="matrix(1 0 0 1 5 123.2255)" style="font-family:'Helvetica-Bold'; font-size:5px;">from Noun Project</text>
</svg>
